<?xml version="1.0" encoding="UTF-8"?>
<!-- Generated by Pixelmator Pro 3.6.15 -->
<svg width="1000" height="1000" viewBox="0 0 1000 1000" xmlns="http://www.w3.org/2000/svg">
    <path id="Circular-Outline" fill="currentColor" fill-rule="evenodd" stroke="none" d="M 500.485901 1000 C 224.343918 1000 0.485891 776.14209 0.485891 500 C 0.485891 223.85791 224.343918 0 500.485901 0 C 776.627808 0 1000.485901 223.85791 1000.485901 500 C 1000.485901 776.14209 776.627808 1000 500.485901 1000 Z M 500.485901 922.480652 C 733.815247 922.480652 922.966553 733.329346 922.966553 500 C 922.966553 266.670654 733.815247 77.519348 500.485901 77.519348 C 267.156525 77.519348 78.005272 266.670654 78.005272 500 C 78.005272 733.329346 267.156525 922.480652 500.485901 922.480652 Z"/>
    <path id="el" fill="#currentColor" fill-rule="evenodd" stroke="none" d="M 690.669922 254.476563 L 690.669922 691 L 604.244141 691 L 604.244141 254.476563 Z M 420.541016 698.03125 C 389.290863 698.03125 362.093872 691.097717 338.949219 677.230469 C 315.804565 663.36322 297.835999 644.271606 285.042969 619.955078 C 272.249939 595.63855 265.853516 567.855591 265.853516 536.605469 C 265.853516 505.160004 272.347595 477.230591 285.335938 452.816406 C 298.32428 428.402222 316.244019 409.26178 339.095703 395.394531 C 361.947388 381.527283 388.118988 374.59375 417.611328 374.59375 C 448.080231 374.59375 474.691284 381.380798 497.445313 394.955078 C 520.199341 408.529358 537.972595 427.376831 550.765625 451.498047 C 563.558655 475.619263 569.955078 503.402191 569.955078 534.847656 L 569.955078 557.992188 L 349.935547 557.992188 C 350.716797 580.843872 357.455017 599.105408 370.150391 612.777344 C 382.845764 626.44928 400.521362 633.285156 423.177734 633.285156 C 439.974701 633.285156 453.98822 629.671875 465.21875 622.445313 C 476.44928 615.21875 484.017548 605.648499 487.923828 593.734375 L 566.732422 593.734375 C 563.021484 614.24231 554.330139 632.308533 540.658203 647.933594 C 526.986267 663.558655 509.79895 675.814392 489.095703 684.701172 C 468.392487 693.587952 445.541138 698.03125 420.541016 698.03125 Z M 350.521484 502.914063 L 488.509766 502.914063 C 486.361328 483.578003 479.183655 468.294983 466.976563 457.064453 C 454.76947 445.833923 438.900482 440.21875 419.369141 440.21875 C 400.033112 440.21875 384.310608 445.833923 372.201172 457.064453 C 360.091736 468.294983 352.865234 483.578003 350.521484 502.914063 Z"/>
</svg>
